<svg width="375" height="667" viewBox="0 0 375 667" fill="none" xmlns="http://www.w3.org/2000/svg">
  <!-- 背景 -->
  <rect width="375" height="667" fill="#F8F9FA"/>
  
  <!-- 顶部标题栏 -->
  <rect width="375" height="60" fill="#FF6B6B"/>
  <text x="187.5" y="35" text-anchor="middle" fill="white" font-size="18" font-weight="bold">个人中心</text>
  
  <!-- 用户信息卡片 -->
  <rect x="20" y="80" width="335" height="100" rx="12" fill="white" stroke="#E9ECEF" stroke-width="1"/>
  
  <!-- 用户头像 -->
  <circle cx="60" cy="130" r="25" fill="#4ECDC4"/>
  <text x="60" y="138" text-anchor="middle" fill="white" font-size="20">👤</text>
  
  <!-- 用户信息 -->
  <text x="100" y="120" fill="#2C3E50" font-size="16" font-weight="bold">笑话爱好者</text>
  <text x="100" y="140" fill="#6C757D" font-size="12">加入 15 天 | ID: joke_lover_2024</text>
  
  <!-- 快速统计 -->
  <text x="100" y="160" fill="#495057" font-size="12">今日生成 8 个 | 总收藏 23 个</text>
  
  <!-- 统计数据卡片 -->
  <rect x="20" y="200" width="335" height="80" rx="12" fill="white" stroke="#E9ECEF" stroke-width="1"/>
  <text x="40" y="225" fill="#2C3E50" font-size="16" font-weight="bold">📊 我的数据</text>
  
  <!-- 统计项目 -->
  <g>
    <rect x="40" y="235" width="70" height="35" rx="8" fill="#FFF3CD"/>
    <text x="75" y="250" text-anchor="middle" fill="#2C3E50" font-size="12" font-weight="bold">156</text>
    <text x="75" y="265" text-anchor="middle" fill="#6C757D" font-size="10">总浏览</text>
    
    <rect x="120" y="235" width="70" height="35" rx="8" fill="#D1ECF1"/>
    <text x="155" y="250" text-anchor="middle" fill="#2C3E50" font-size="12" font-weight="bold">23</text>
    <text x="155" y="265" text-anchor="middle" fill="#6C757D" font-size="10">收藏</text>
    
    <rect x="200" y="235" width="70" height="35" rx="8" fill="#F8D7DA"/>
    <text x="235" y="250" text-anchor="middle" fill="#2C3E50" font-size="12" font-weight="bold">45</text>
    <text x="235" y="265" text-anchor="middle" fill="#6C757D" font-size="10">分享</text>
    
    <rect x="280" y="235" width="70" height="35" rx="8" fill="#D4EDDA"/>
    <text x="315" y="250" text-anchor="middle" fill="#2C3E50" font-size="12" font-weight="bold">15</text>
    <text x="315" y="265" text-anchor="middle" fill="#6C757D" font-size="10">天数</text>
  </g>
  
  <!-- 功能菜单 -->
  <rect x="20" y="300" width="335" height="240" rx="12" fill="white" stroke="#E9ECEF" stroke-width="1"/>
  <text x="40" y="325" fill="#2C3E50" font-size="16" font-weight="bold">功能菜单</text>
  
  <!-- 菜单项目 -->
  <g>
    <!-- 浏览历史 -->
    <rect x="40" y="340" width="295" height="40" rx="8" fill="#F8F9FA"/>
    <text x="60" y="365" fill="#2C3E50" font-size="24">📖</text>
    <text x="100" y="358" fill="#2C3E50" font-size="14" font-weight="bold">浏览历史</text>
    <text x="100" y="372" fill="#6C757D" font-size="12">查看浏览过的笑话</text>
    <text x="315" y="365" fill="#6C757D" font-size="16">></text>
    
    <!-- 我的收藏 -->
    <rect x="40" y="385" width="295" height="40" rx="8" fill="#F8F9FA"/>
    <text x="60" y="410" fill="#2C3E50" font-size="24">❤️</text>
    <text x="100" y="403" fill="#2C3E50" font-size="14" font-weight="bold">我的收藏</text>
    <text x="100" y="417" fill="#6C757D" font-size="12">管理收藏的笑话</text>
    <text x="315" y="410" fill="#6C757D" font-size="16">></text>
    
    <!-- 偏好设置 -->
    <rect x="40" y="430" width="295" height="40" rx="8" fill="#F8F9FA"/>
    <text x="60" y="455" fill="#2C3E50" font-size="24">⚙️</text>
    <text x="100" y="448" fill="#2C3E50" font-size="14" font-weight="bold">偏好设置</text>
    <text x="100" y="462" fill="#6C757D" font-size="12">个性化设置</text>
    <text x="315" y="455" fill="#6C757D" font-size="16">></text>
    
    <!-- 意见反馈 -->
    <rect x="40" y="475" width="295" height="40" rx="8" fill="#F8F9FA"/>
    <text x="60" y="500" fill="#2C3E50" font-size="24">💬</text>
    <text x="100" y="493" fill="#2C3E50" font-size="14" font-weight="bold">意见反馈</text>
    <text x="100" y="507" fill="#6C757D" font-size="12">帮助我们改进</text>
    <text x="315" y="500" fill="#6C757D" font-size="16">></text>
    
    <!-- 关于我们 -->
    <rect x="40" y="520" width="295" height="40" rx="8" fill="#F8F9FA"/>
    <text x="60" y="545" fill="#2C3E50" font-size="24">ℹ️</text>
    <text x="100" y="538" fill="#2C3E50" font-size="14" font-weight="bold">关于我们</text>
    <text x="100" y="552" fill="#6C757D" font-size="12">了解更多信息</text>
    <text x="315" y="545" fill="#6C757D" font-size="16">></text>
  </g>
  
  <!-- 底部操作 -->
  <rect x="20" y="560" width="335" height="40" rx="20" fill="#FFF3CD" stroke="#FFE66D" stroke-width="1"/>
  <text x="187.5" y="583" text-anchor="middle" fill="#2C3E50" font-size="14">🗑️ 清除缓存</text>
  
  <!-- 底部导航栏 -->
  <rect y="617" width="375" height="50" fill="white" stroke="#E9ECEF" stroke-width="1"/>
  
  <!-- 导航项目 -->
  <g>
    <!-- 首页 -->
    <text x="55" y="645" text-anchor="middle" fill="#6C757D" font-size="20">🏠</text>
    
    <!-- 分类 -->
    <text x="130" y="645" text-anchor="middle" fill="#6C757D" font-size="20">📂</text>
    
    <!-- 历史 -->
    <text x="205" y="645" text-anchor="middle" fill="#6C757D" font-size="20">📖</text>
    
    <!-- 个人 (激活状态) -->
    <rect x="245" y="627" width="70" height="30" rx="15" fill="#FF6B6B" opacity="0.1"/>
    <text x="280" y="645" text-anchor="middle" fill="#FF6B6B" font-size="20">👤</text>
  </g>
  
  <!-- 设置面板指示器 (可选显示) -->
  <g opacity="0.3">
    <rect x="280" y="100" width="60" height="20" rx="10" fill="#4ECDC4"/>
    <text x="310" y="113" text-anchor="middle" fill="white" font-size="10">设置</text>
  </g>
</svg>